<?xml version="1.0" encoding="utf-8"?>
<!-- Generator: Adobe Illustrator 23.0.1, SVG Export Plug-In . SVG Version: 6.00 Build 0)  -->
<svg version="1.1" id="Layer_1" xmlns="http://www.w3.org/2000/svg" xmlns:xlink="http://www.w3.org/1999/xlink" x="0px" y="0px"
	 width="200px" height="200px" viewBox="0 0 200 200" style="enable-background:new 0 0 200 200;" xml:space="preserve">
<style type="text/css">
	.st0{fill:#2b71f6;}
</style>
<g>
	<g>
		<g>
			<g>
				<g>
					<path class="st0" d="M168.5,180H31.5L20,168.5V160h63.5l5,5h22.9l5-5H180v8.5L168.5,180z M33.5,175h132.9l8.5-8.5V165h-56.5
						l-5,5H86.5l-5-5H25v1.5L33.5,175z"/>
				</g>
				<g>
					<path class="st0" d="M37.5,160h-5V85c0-5.5,4.5-10,10-10v5c-2.8,0-5,2.2-5,5V160z"/>
				</g>
				<g>
					<path class="st0" d="M167.5,160h-5V85c0-2.8-2.2-5-5-5v-5c5.5,0,10,4.5,10,10V160z"/>
				</g>
			</g>
		</g>
		<g>
			<g>
				<path class="st0" d="M77.5,127.5c-8.6,0-15-8.1-15-18.8c0-7.6,1.7-16.2,15-16.2c13.3,0,15,8.7,15,16.2
					C92.5,119.4,86.1,127.5,77.5,127.5z M77.5,97.5c-7.6,0-10,2.7-10,11.2c0,6.7,3.5,13.8,10,13.8c6.5,0,10-7.1,10-13.8
					C87.5,100.2,85.1,97.5,77.5,97.5z"/>
			</g>
			<g>
				<path class="st0" d="M97.5,147.5h-40c-4.1,0-7.5-4.6-7.5-10V131l18.8-10.7l2.5,4.3L55,134v3.5c0,3.1,1.8,5,2.5,5h40
					c0.7,0,2.5-1.9,2.5-5V134l-16.2-9.3l2.5-4.3L105,131v6.5C105,142.9,101.6,147.5,97.5,147.5z"/>
			</g>
		</g>
		<g>
			<g>
				<path class="st0" d="M110,105c-0.3,0-0.6-0.1-1-0.2c-0.9-0.4-1.5-1.3-1.5-2.3V80H55c-4.1,0-7.5-3.4-7.5-7.5v-45
					c0-4.1,3.4-7.5,7.5-7.5h90c4.1,0,7.5,3.4,7.5,7.5v45c0,4.1-3.4,7.5-7.5,7.5h-9l-24.3,24.3C111.3,104.7,110.6,105,110,105z
					 M55,25c-1.4,0-2.5,1.1-2.5,2.5v45c0,1.4,1.1,2.5,2.5,2.5h55c1.4,0,2.5,1.1,2.5,2.5v19l20.7-20.7c0.5-0.5,1.1-0.7,1.8-0.7h10
					c1.4,0,2.5-1.1,2.5-2.5v-45c0-1.4-1.1-2.5-2.5-2.5H55z"/>
			</g>
			<g>
				<rect x="97.5" y="47.5" class="st0" width="5" height="5"/>
			</g>
			<g>
				<rect x="107.5" y="47.5" class="st0" width="5" height="5"/>
			</g>
			<g>
				<rect x="87.5" y="47.5" class="st0" width="5" height="5"/>
			</g>
		</g>
		<g>
			<polygon class="st0" points="150,147.5 112.5,147.5 112.5,142.5 145,142.5 145,107.5 150,107.5 			"/>
		</g>
		<g>
			<rect x="117.5" y="112.5" class="st0" width="22.5" height="5"/>
		</g>
		<g>
			<rect x="117.5" y="122.5" class="st0" width="22.5" height="5"/>
		</g>
		<g>
			<rect x="117.5" y="132.5" class="st0" width="22.5" height="5"/>
		</g>
	</g>
</g>
</svg>
