<?xml version="1.0" encoding="utf-8"?>
<!-- Generator: Adobe Illustrator 23.0.1, SVG Export Plug-In . SVG Version: 6.00 Build 0)  -->
<svg version="1.1" id="Layer_1" xmlns="http://www.w3.org/2000/svg" xmlns:xlink="http://www.w3.org/1999/xlink" x="0px" y="0px"
	 width="200px" height="200px" viewBox="0 0 200 200" style="enable-background:new 0 0 200 200;" xml:space="preserve">
<style type="text/css">
	.st0{fill:#2b71f6;}
</style>
<g>
	<g>
		<g>
			<rect x="30" y="20" class="st0" width="5" height="160"/>
		</g>
		<g>
			<rect x="20" y="165" class="st0" width="160" height="5"/>
		</g>
		<g>
			
				<rect x="43.4" y="120" transform="matrix(0.7071 -0.7071 0.7071 0.7071 -69.7792 76.5381)" class="st0" width="28.3" height="5"/>
		</g>
		<g>
			<g>
				<rect x="40" y="155" class="st0" width="5" height="5"/>
			</g>
			<g>
				<rect x="50" y="155" class="st0" width="5" height="5"/>
			</g>
			<g>
				<rect x="60" y="155" class="st0" width="5" height="5"/>
			</g>
			<g>
				<rect x="70" y="155" class="st0" width="5" height="5"/>
			</g>
			<g>
				<rect x="80" y="155" class="st0" width="5" height="5"/>
			</g>
			<g>
				<rect x="90" y="155" class="st0" width="5" height="5"/>
			</g>
			<g>
				<rect x="100" y="155" class="st0" width="5" height="5"/>
			</g>
			<g>
				<rect x="110" y="155" class="st0" width="5" height="5"/>
			</g>
			<g>
				<rect x="120" y="155" class="st0" width="5" height="5"/>
			</g>
			<g>
				<rect x="130" y="155" class="st0" width="5" height="5"/>
			</g>
			<g>
				<rect x="140" y="155" class="st0" width="5" height="5"/>
			</g>
			<g>
				<rect x="150" y="155" class="st0" width="5" height="5"/>
			</g>
			<g>
				<rect x="160" y="155" class="st0" width="5" height="5"/>
			</g>
		</g>
		<g>
			<g>
				<path class="st0" d="M81.8,101.8l-3.5-3.5l10-10c0.5-0.5,1.1-0.7,1.8-0.7h34l36.8-36.8l3.5,3.5l-37.5,37.5
					c-0.5,0.5-1.1,0.7-1.8,0.7H91L81.8,101.8z"/>
			</g>
			<g>
				<path class="st0" d="M92.5,70c-0.6,0-1.3-0.2-1.8-0.7L76.5,55H45v-5h32.5c0.7,0,1.3,0.3,1.8,0.7L92.5,64l13.2-13.2
					c0.5-0.5,1.1-0.7,1.8-0.7H125c0.7,0,1.3,0.3,1.8,0.7l12.5,12.5l-3.5,3.5L124,55h-15.4L94.3,69.3C93.8,69.8,93.1,70,92.5,70z"/>
			</g>
			<g>
				
					<rect x="153.8" y="74.9" transform="matrix(0.7071 -0.7071 0.7071 0.7071 -13.4556 135.0152)" class="st0" width="5" height="17.7"/>
			</g>
			<g>
				<g>
					<path class="st0" d="M162.5,92.5H150v-5h10v-10h5V90C165,91.4,163.9,92.5,162.5,92.5z"/>
				</g>
			</g>
			<g>
				<g>
					<path class="st0" d="M165,65h-5V55h-10v-5h12.5c1.4,0,2.5,1.1,2.5,2.5V65z"/>
				</g>
			</g>
			<g>
				<g>
					<g>
						<path class="st0" d="M154.3,136.8l-3.5-3.5l8.2-8.2l-8.2-8.2l3.5-3.5l10,10c1,1,1,2.6,0,3.5L154.3,136.8z"/>
					</g>
				</g>
				<g>
					<path class="st0" d="M162.5,127.5h-35c-0.7,0-1.3-0.3-1.8-0.7L110,111l-15.7,15.7c-1,1-2.6,1-3.5,0l-45-45l3.5-3.5l43.2,43.2
						l15.7-15.7c1-1,2.6-1,3.5,0l16.8,16.8h34V127.5z"/>
				</g>
			</g>
		</g>
	</g>
</g>
</svg>
