<?xml version="1.0" encoding="utf-8"?>
<!-- Generator: Adobe Illustrator 23.0.1, SVG Export Plug-In . SVG Version: 6.00 Build 0)  -->
<svg version="1.1" id="Layer_1" xmlns="http://www.w3.org/2000/svg" xmlns:xlink="http://www.w3.org/1999/xlink" x="0px" y="0px"
	 width="200px" height="200px" viewBox="0 0 200 200" style="enable-background:new 0 0 200 200;" xml:space="preserve">
<style type="text/css">
	.st0{fill:#fff;}
</style>
<g>
	<g>
		<g>
			<g>
				<g>
					<path class="st0" d="M147.5,125H120v-5h27.5c15.2,0,27.5-12.3,27.5-27.5c0-14.3-9.7-25-22.5-25H150V65c0-9.7-5.3-20-20-20h-4
						l-0.7-1.3C118.8,32,106.6,25,92.5,25C71.8,25,55,41.8,55,62.5V65h-2.5C37.3,65,25,77.3,25,92.5S37.3,120,52.5,120H80v5H52.5
						C34.6,125,20,110.4,20,92.5c0-17.1,13.3-31.2,30.1-32.4C51.3,37.8,69.9,20,92.5,20c15.4,0,28.9,7.4,36.4,20h1.1
						c14.4,0,23.9,8.8,24.9,22.6c14.5,1.3,25.1,13.7,25.1,29.9C180,110.4,165.4,125,147.5,125z"/>
				</g>
			</g>
		</g>
		<g>
			<rect x="105" y="110" class="st0" width="5" height="25"/>
		</g>
		<g>
			<rect x="105" y="100" class="st0" width="5" height="5"/>
		</g>
		<g>
			<rect x="105" y="90" class="st0" width="5" height="5"/>
		</g>
		<g>
			<rect x="105" y="80" class="st0" width="5" height="5"/>
		</g>
		<g>
			<rect x="90" y="80" class="st0" width="5" height="25"/>
		</g>
		<g>
			<rect x="90" y="120" class="st0" width="5" height="5"/>
		</g>
		<g>
			<rect x="90" y="110" class="st0" width="5" height="5"/>
		</g>
		<g>
			<rect x="90" y="130" class="st0" width="5" height="5"/>
		</g>
		<g>
			<path class="st0" d="M70,65h-5c0-16,12.9-30,27.5-30v5C81.9,40,70,50.7,70,65z"/>
		</g>
		<g>
			<path class="st0" d="M100,180c-11,0-20-9-20-20s9-20,20-20c11,0,20,9,20,20S111,180,100,180z M100,145c-8.3,0-15,6.7-15,15
				s6.7,15,15,15c8.3,0,15-6.7,15-15S108.3,145,100,145z"/>
		</g>
		<g>
			<path class="st0" d="M100,170c-5.5,0-10-4.5-10-10s4.5-10,10-10c5.5,0,10,4.5,10,10S105.5,170,100,170z M100,155
				c-2.8,0-5,2.2-5,5s2.2,5,5,5c2.8,0,5-2.2,5-5S102.8,155,100,155z"/>
		</g>
	</g>
</g>
</svg>
