<?xml version="1.0" encoding="utf-8"?>
<!-- Generator: Adobe Illustrator 23.0.1, SVG Export Plug-In . SVG Version: 6.00 Build 0)  -->
<svg version="1.1" id="Layer_1" xmlns="http://www.w3.org/2000/svg" xmlns:xlink="http://www.w3.org/1999/xlink" x="0px" y="0px"
	 width="200px" height="200px" viewBox="0 0 200 200" style="enable-background:new 0 0 200 200;" xml:space="preserve">
<style type="text/css">
	.st0{fill:#fff;}
</style>
<g>
	<g>
		<g>
			<g>
				<path class="st0" d="M100,145c-43.5,0-78-41.6-79.4-43.4c-0.8-0.9-0.8-2.2,0-3.2C22,96.6,56.5,55,100,55s78,41.6,79.4,43.4
					c0.8,0.9,0.8,2.2,0,3.2C178,103.4,143.5,145,100,145z M25.8,100c6.8,7.6,37.7,40,74.2,40c36.5,0,67.4-32.4,74.2-40
					c-6.8-7.6-37.7-40-74.2-40C63.5,60,32.6,92.4,25.8,100z"/>
			</g>
			<g>
				<path class="st0" d="M100,145c-24.8,0-45-20.2-45-45s20.2-45,45-45s45,20.2,45,45S124.8,145,100,145z M100,60
					c-22.1,0-40,17.9-40,40s17.9,40,40,40s40-17.9,40-40S122.1,60,100,60z"/>
			</g>
			<g>
				<path class="st0" d="M100,130c-16,0-30-12.9-30-27.5h5c0,10.6,10.7,22.5,25,22.5c13.8,0,25-11.2,25-25c0-14.3-11.9-25-22.5-25
					v-5c14.6,0,27.5,14,27.5,30C130,116.5,116.5,130,100,130z"/>
			</g>
		</g>
		<g>
			<path class="st0" d="M172.6,80.6C163.9,47.9,134,25,100,25c-34,0-63.9,22.9-72.6,55.6l-4.8-1.3C31.9,44.4,63.7,20,100,20
				c36.3,0,68.1,24.4,77.4,59.4L172.6,80.6z"/>
		</g>
		<g>
			<path class="st0" d="M100,180c-36.3,0-68.1-24.4-77.4-59.4l4.8-1.3C36.1,152.1,66,175,100,175c34,0,63.9-22.9,72.6-55.6l4.8,1.3
				C168.1,155.6,136.3,180,100,180z"/>
		</g>
		<g>
			<path class="st0" d="M97.5,97.5H70V95c0-13.8,11.2-25,25-25h2.5V97.5z M75.2,92.5h17.3V75.2C83.5,76.3,76.3,83.5,75.2,92.5z"/>
		</g>
	</g>
</g>
</svg>
