<?xml version="1.0" encoding="utf-8"?>
<!-- Generator: Adobe Illustrator 23.0.1, SVG Export Plug-In . SVG Version: 6.00 Build 0)  -->
<svg version="1.1" id="Layer_1" xmlns="http://www.w3.org/2000/svg" xmlns:xlink="http://www.w3.org/1999/xlink" x="0px" y="0px"
	 width="200px" height="200px" viewBox="0 0 200 200" style="enable-background:new 0 0 200 200;" xml:space="preserve">
<style type="text/css">
	.st0{fill:#fff;}
</style>
<g>
	<g>
		<g>
			<path class="st0" d="M100,182.6c-21.7,0-38.7-36.3-38.7-82.6c0-18.2,2.7-35.5,7.7-49.9l4.9,1.7C69,65.7,66.5,82.3,66.5,100
				c0,42,15.4,77.4,33.5,77.4c18.2,0,33.5-35.5,33.5-77.4S118.2,22.6,100,22.6c-3.7,0-7.4,1.5-10.9,4.4l-3.3-4
				c4.5-3.7,9.2-5.5,14.2-5.5c21.7,0,38.7,36.3,38.7,82.6S121.7,182.6,100,182.6z"/>
		</g>
		<g>
			<path class="st0" d="M143.4,153.4c-17.3,0-40-6.8-62.7-19.9C61.8,122.7,46,109.1,36.1,95.3C25.8,81,23.1,68,28.5,58.7
				c10.9-18.8,50.8-15.4,90.9,7.8c15.9,9.2,29.6,20.2,39.5,31.9l-3.9,3.4c-9.6-11.2-22.8-21.8-38.2-30.7C80.4,50,42,45.5,33,61.3
				c-4.2,7.3-1.5,18.6,7.4,31c9.5,13.2,24.7,26.2,42.9,36.7c36.3,21,74.7,25.4,83.8,9.7c1.7-2.9,2.3-6.3,1.9-10.3l5.1-0.6
				c0.5,5-0.3,9.6-2.5,13.4C166.8,149.4,156.6,153.4,143.4,153.4z"/>
		</g>
		<g>
			<path class="st0" d="M56.6,153.4c-13.3,0-23.5-4-28.2-12.1c-2.2-3.8-3.1-8.4-2.5-13.4l5.1,0.6c-0.4,3.9,0.2,7.4,1.9,10.3
				c9.1,15.8,47.5,11.3,83.8-9.7c18.2-10.5,33.4-23.5,42.9-36.7c8.9-12.4,11.6-23.7,7.4-31C158,45.5,119.6,50,83.2,70.9
				C67.8,79.8,54.6,90.5,45,101.7l-3.9-3.4c10-11.7,23.6-22.7,39.5-31.8c40.1-23.1,80-26.6,90.9-7.8c5.4,9.3,2.6,22.3-7.7,36.6
				c-9.9,13.8-25.7,27.3-44.5,38.2C96.6,146.6,74,153.4,56.6,153.4z"/>
		</g>
		<g>
			<g>
				<path class="st0" d="M30.3,131c-5.7,0-10.3-4.6-10.3-10.3c0-5.7,4.6-10.3,10.3-10.3c5.7,0,10.3,4.6,10.3,10.3
					C40.6,126.3,36,131,30.3,131z M30.3,115.5c-2.8,0-5.2,2.3-5.2,5.2c0,2.8,2.3,5.2,5.2,5.2c2.8,0,5.2-2.3,5.2-5.2
					C35.5,117.8,33.2,115.5,30.3,115.5z"/>
			</g>
		</g>
		<g>
			<g>
				<path class="st0" d="M169.7,131c-5.7,0-10.3-4.6-10.3-10.3c0-5.7,4.6-10.3,10.3-10.3c5.7,0,10.3,4.6,10.3,10.3
					C180,126.3,175.4,131,169.7,131z M169.7,115.5c-2.8,0-5.2,2.3-5.2,5.2c0,2.8,2.3,5.2,5.2,5.2c2.8,0,5.2-2.3,5.2-5.2
					C174.8,117.8,172.5,115.5,169.7,115.5z"/>
			</g>
		</g>
		<g>
			<g>
				<path class="st0" d="M81.9,40.6c-5.7,0-10.3-4.6-10.3-10.3S76.2,20,81.9,20c5.7,0,10.3,4.6,10.3,10.3S87.6,40.6,81.9,40.6z
					 M81.9,25.2c-2.8,0-5.2,2.3-5.2,5.2s2.3,5.2,5.2,5.2c2.8,0,5.2-2.3,5.2-5.2S84.8,25.2,81.9,25.2z"/>
			</g>
		</g>
		<g>
			<g>
				<path class="st0" d="M79.4,120.6h-5.2c0-14,11.5-19.6,17.6-20.6l0.8,5.1C92.1,105.2,79.4,107.6,79.4,120.6z"/>
			</g>
			<g>
				<path class="st0" d="M125.8,120.6h-5.2c0-13.1-12.8-15.4-13.3-15.5l0.8-5.1C114.3,101.1,125.8,106.7,125.8,120.6z"/>
			</g>
			<g>
				<path class="st0" d="M100,107.7c-8.8,0-15.5-8.3-15.5-19.4c0-7.8,1.8-16.8,15.5-16.8c13.7,0,15.5,9,15.5,16.8
					C115.5,99.4,108.8,107.7,100,107.7z M100,76.8c-7.8,0-10.3,2.8-10.3,11.6c0,6.9,3.6,14.2,10.3,14.2c6.7,0,10.3-7.3,10.3-14.2
					C110.3,79.6,107.8,76.8,100,76.8z"/>
			</g>
		</g>
	</g>
</g>
</svg>
