<?xml version="1.0" encoding="utf-8"?>
<!-- Generator: Adobe Illustrator 23.0.1, SVG Export Plug-In . SVG Version: 6.00 Build 0)  -->
<svg version="1.1" id="Layer_1" xmlns="http://www.w3.org/2000/svg" xmlns:xlink="http://www.w3.org/1999/xlink" x="0px" y="0px"
	 width="200px" height="200px" viewBox="0 0 200 200" style="enable-background:new 0 0 200 200;" xml:space="preserve">
<style type="text/css">
	.st0{fill:#2b71f6;}
</style>
<g>
	<g>
		<g>
			<g>
				<rect x="45" y="130" class="st0" width="5" height="30"/>
			</g>
			<g>
				<rect x="55" y="127.5" class="st0" width="5" height="32.5"/>
			</g>
			<g>
				<g>
					<rect x="65" y="117.5" class="st0" width="5" height="42.5"/>
				</g>
			</g>
			<g>
				<g>
					<rect x="75" y="112.5" class="st0" width="5" height="47.5"/>
				</g>
			</g>
			<g>
				<g>
					<rect x="85" y="110" class="st0" width="5" height="50"/>
				</g>
			</g>
			<g>
				<g>
					<rect x="95" y="100" class="st0" width="5" height="60"/>
				</g>
			</g>
			<g>
				<g>
					<rect x="105" y="100" class="st0" width="5" height="60"/>
				</g>
			</g>
			<g>
				<g>
					<rect x="115" y="100" class="st0" width="5" height="60"/>
				</g>
			</g>
			<g>
				<g>
					<rect x="125" y="80" class="st0" width="5" height="80"/>
				</g>
			</g>
			<g>
				<g>
					<rect x="135" y="80" class="st0" width="5" height="80"/>
				</g>
			</g>
			<g>
				<g>
					<rect x="145" y="80" class="st0" width="5" height="80"/>
				</g>
			</g>
			<g>
				<g>
					<rect x="155" y="70" class="st0" width="5" height="90"/>
				</g>
			</g>
			<g>
				<g>
					<path class="st0" d="M180,160h-5V60h-6.3l-9.2,11.6c-0.1,0.1-0.2,0.3-0.4,0.4l-12.5,10c-0.4,0.4-1,0.5-1.6,0.5h-16l-9.3,18.6
						c-0.4,0.8-1.3,1.4-2.2,1.4H110c-0.2,0-0.4,0-0.6-0.1l-8.6-2.2l-14,14c-0.5,0.5-1.1,0.7-1.8,0.7H71.3l-9.3,13.9
						c-0.5,0.7-1.2,1.1-2.1,1.1H49l-9,15.7V160h-5v-15c0-0.4,0.1-0.9,0.3-1.2l10-17.5c0.4-0.8,1.3-1.3,2.2-1.3h11.2l9.3-13.9
						c0.5-0.7,1.2-1.1,2.1-1.1h14l14.3-14.3c0.6-0.6,1.5-0.9,2.4-0.7l9.7,2.4h5.6l9.3-18.6c0.4-0.8,1.3-1.4,2.2-1.4h16.6l11.6-9.3
						l9.8-12.3c0.5-0.6,1.2-0.9,2-0.9h10c1.4,0,2.5,1.1,2.5,2.5V160z"/>
				</g>
			</g>
		</g>
		<g>
			<rect x="165" y="57.5" class="st0" width="5" height="102.5"/>
		</g>
		<g>
			<path class="st0" d="M180,175H22.5c-1.4,0-2.5-1.1-2.5-2.5v-145c0-1.4,1.1-2.5,2.5-2.5H180v5H25v140h155V175z"/>
		</g>
		<g>
			<rect x="35" y="40" class="st0" width="5" height="5"/>
		</g>
		<g>
			<rect x="35" y="50" class="st0" width="5" height="5"/>
		</g>
		<g>
			<rect x="35" y="60" class="st0" width="5" height="5"/>
		</g>
		<g>
			<rect x="35" y="70" class="st0" width="5" height="5"/>
		</g>
		<g>
			<rect x="45" y="40" class="st0" width="45" height="5"/>
		</g>
		<g>
			<rect x="45" y="50" class="st0" width="45" height="5"/>
		</g>
		<g>
			<rect x="45" y="60" class="st0" width="45" height="5"/>
		</g>
		<g>
			<rect x="45" y="70" class="st0" width="45" height="5"/>
		</g>
	</g>
</g>
</svg>
